<?xml version="1.0" encoding="utf-8"?>
<?xml-stylesheet type="text/xsl" href="rss1.xsl"?>
<rss version="2.0" xmlns:atom="http://www.w3.org/2005/Atom" xmlns:content="http://purl.org/rss/1.0/modules/content/" xmlns:dc="http://purl.org/dc/elements/1.1/" xmlns:media="http://search.yahoo.com/mrss/">
<channel>
 <title>Getty</title>
 <link>http://www.gettyimg.com/</link>
 <atom:link href="http://www.gettyimg.com/" rel="self" type="application/rss+xml" />

 
                <item>
                <title><![CDATA[【Singles (lossless)】AIFF - Bora York - Open Tales]]></title>
                <link><![CDATA[https://sharemania.us/threads/bora-york-open-tales.230417/]]></link>
                <description><![CDATA[<article>
<blockquote class="messageText SelectQuoteContainer ugc baseHtml">
<div style="text-align: center"><b>Bora York - Open Tales</b><br>
<img src="https://f4.bcbits.com/img/a3004853338_65" class="bbCodeImage LbImage" alt="[​IMG]" data-url="https://f4.bcbits.com/img/a3004853338_65" style=""><br>
DL:
<div class="bbCodeBlock bbCodeVfcHH HiddenContent">
<div class="attribution type">Hidden Content:</div>
<blockquote>You must either reply or click 'Like' to see the hidden information contained here.</blockquote>
</div></div>
<div class="messageTextEndMarker">&nbsp;</div>
</blockquote>
</article>]]></description>
                <author><![CDATA[AkV]]></author>
                </item>

                
                <item>
                <title><![CDATA[【Documentaries】HDTV - Laura Pausini - Piacere Di Conoscerti (WITH SUBTITLES) [2022] [1080p mp4]]]></title>
                <link><![CDATA[https://sharemania.us/threads/laura-pausini-piacere-di-conoscerti-with-subtitles-2022-1080p-mp4.230416/]]></link>
                <description><![CDATA[<article>
<blockquote class="messageText SelectQuoteContainer ugc baseHtml">
<div style="text-align: center"><img src="https://images-na.ssl-images-amazon.com/images/S/pv-target-images/8e7ed9fd1447c6f1f6b304d5f3ce840996e9bf80cec2b7a893b25655967b5baf._RI_V_TTW_.jpg" class="bbCodeImage LbImage" alt="[​IMG]" data-url="https://images-na.ssl-images-amazon.com/images/S/pv-target-images/8e7ed9fd1447c6f1f6b304d5f3ce840996e9bf80cec2b7a893b25655967b5baf._RI_V_TTW_.jpg" style=""> <br>
<b>Subtitles:</b><br>
English, Portuguese, German, French, Spanish<br>
(Rename the .srt you will use to the same name as the .mp4)​</div>
<div class="ToggleTriggerAnchor bbCodeSpoilerContainer">
<button type="button" class="button bbCodeSpoilerButton ToggleTrigger Tooltip JsOnly" data-target="> .SpoilerTarget"><span>Spoiler: <span class="SpoilerTitle">MEDIA INFO</span></span></button>
<div class="SpoilerTarget bbCodeSpoilerText">Name : Piacere Di Conoscerti.mp4<br>
Format : MPEG-4<br>
Format profile : Base Media<br>
File size : 1.50 GiB<br>
Duration : 1 h 21 min<br>
Overall bit rate : 2 640 kb/s<br>
Writing application : Lavf58.67.100<br>
<br>
Video<br>
ID : 1<br>
Format : AVC<br>
Format/Info : Advanced Video Codec<br>
Format profile : High<br>
Format level : 4.1<br>
Format settings, CABAC : Yes<br>
Format settings, Referenc : 4 frames<br>
Codec ID : avc1<br>
Duration : 1 h 21 min<br>
Bit rate : 2 250 kb/s<br>
Maximum bit rate : 31.2 Mb/s<br>
Width : 1 920 pixels<br>
Height : 872 pixels<br>
Display aspect ratio : 2.2:1<br>
Frame rate mode : Constant<br>
Frame rate : 25.000 FPS<br>
Color space : YUV<br>
Chroma subsampling : 4:2:0<br>
Bit depth : 8 bits<br>
Scan type : Progressive<br>
Bits/(Pixel*Frame) : 0.054<br>
Stream size : 1.28 GiB (85%)<br>
Writing library : x264 core 161<br>
Encoding settings : cabac=1 / ref=4 / deblock=1:-1:-1 / analyse=0x3:0x133 / me=umh / subme=9 / psy=1 / psy_rd=1.00:0.15 / mixed_ref=1 / me_range=24 / chroma_me=1 / trellis=2 / 8x8dct=1 / cqm=0 / deadzone=21,11 / fast_pskip=0 / chroma_qp_offset=-3 / threads=24 / lookahead_threads=2 / sliced_threads=0 / nr=0 / decimate=1 / interlaced=0 / bluray_compat=0 / constrained_intra=0 / bframes=3 / b_pyramid=2 / b_adapt=2 / b_bias=0 / direct=3 / weightb=1 / open_gop=0 / weightp=2 / keyint=250 / keyint_min=23 / scenecut=40 / intra_refresh=0 / rc_lookahead=60 / rc=2pass / mbtree=1 / bitrate=2250 / ratetol=1.0 / qcomp=0.60 / qpmin=0 / qpmax=69 / qpstep=4 / cplxblur=20.0 / qblur=0.5 / vbv_maxrate=31250 / vbv_bufsize=31250 / nal_hrd=none / filler=0 / ip_ratio=1.40 / aq=1:1.00<br>
Color range : Limited<br>
Color primaries : BT.709<br>
Transfer characteristics : BT.709<br>
Matrix coefficients : BT.709<br>
Codec configuration box : avcC<br>
<br>
Audio<br>
ID : 2<br>
Format : AAC LC<br>
Format/Info : Advanced Audio Codec<br>
Codec ID : mp4a-40-2<br>
Duration : 1 h 21 min<br>
Source duration : 1 h 21 min<br>
Source_Duration_LastFrame : -11 ms<br>
Bit rate mode : Constant<br>
Bit rate : 384 kb/s<br>
Channel(s) : 6 channels<br>
Channel layout : C L R Ls Rs LFE<br>
Sampling rate : 48.0 kHz<br>
Frame rate : 46.875 FPS (1024 SPF)<br>
Compression mode : Lossy<br>
Stream size : 224 MiB (15%)<br>
Source stream size : 224 MiB (15%)<br>
Default : Yes<br>
Alternate group : 1<br>
mdhd_Duration : 4891744</div>
</div><div style="text-align: center">
<div class="bbCodeBlock bbCodeVfcHH HiddenContent">
<div class="attribution type">Hidden Content:</div>
<blockquote>You must reply before you can see the hidden data contained here.</blockquote>
</div></div>
<div class="messageTextEndMarker">&nbsp;</div>
</blockquote>
</article>]]></description>
                <author><![CDATA[msc93]]></author>
                </item>

                
                <item>
                <title><![CDATA[【Albums (lossy)】M4A - Honey Dijon - Black Girl Magic (Fan-Made Extended Edition)]]></title>
                <link><![CDATA[https://sharemania.us/threads/honey-dijon-black-girl-magic-fan-made-extended-edition.230415/]]></link>
                <description><![CDATA[<article>
<blockquote class="messageText SelectQuoteContainer ugc baseHtml">
<a href="https://imgbox.com/yuPXu0Lo" target="_blank" class="externalLink" rel="nofollow"><img src="https://thumbs2.imgbox.com/16/06/yuPXu0Lo_t.jpeg" class="bbCodeImage LbImage" alt="[​IMG]" data-url="https://thumbs2.imgbox.com/16/06/yuPXu0Lo_t.jpeg"></a><br>
<br>
<b>Disc 1</b> is the Standard Album. <b>Disc 2</b> are Extended Mixes. <b>Disc 3</b> are a set of Remixes. <b>Disc 4</b> is more Remixes.<br>
This was compiled by me and the extra songs come from the Slap! - EP, Beyond - Single, and various other Singles. I will add a tracklist later.<br>
<br>
Genre(s): House, Dance, Hip House<br>
Album Artist(s): Honey Dijon<br>
<br>
<br>
<b>USE A DECODING SITE LIKE <a href="https://www.base64decode.org/" target="_blank" class="externalLink" rel="nofollow">https://www.base64decode.org/</a> or <a href="https://toolbox.googleapps.com/apps/encode_decode/" target="_blank" class="externalLink" rel="nofollow">https://toolbox.googleapps.com/apps/encode_decode/</a> TO GET THE LINK</b><br>
<br>
<div class="bbCodeBlock bbCodeVfcHH HiddenContent">
<div class="attribution type">Hidden Content:</div>
<blockquote>You must either reply or click 'Like' to see the hidden information contained here.</blockquote>
</div>
<div class="messageTextEndMarker">&nbsp;</div>
</blockquote>
</article>]]></description>
                <author><![CDATA[hgtvelesion]]></author>
                </item>

                
                <item>
                <title><![CDATA[【HD Live Performances】HDTV - ITZY - RINGO (NHK G Venue101 2023.10.14)]]></title>
                <link><![CDATA[https://sharemania.us/threads/itzy-ringo-nhk-g-venue101-2023-10-14.230418/]]></link>
                <description><![CDATA[<article>
<blockquote class="messageText SelectQuoteContainer ugc baseHtml">
<img src="https://i.vgy.me/bPJzs6.png" class="bbCodeImage LbImage" alt="[​IMG]" data-url="https://i.vgy.me/bPJzs6.png" style=""> <br>
<div style="text-align: center">
<div class="bbCodeBlock bbCodeVfcHH HiddenContent">
<div class="attribution type">Hidden Content:</div>
<blockquote>You must either reply or click 'Like' to see the hidden information contained here.</blockquote>
</div></div>
<div class="messageTextEndMarker">&nbsp;</div>
</blockquote>
</article>]]></description>
                <author><![CDATA[netflix]]></author>
                </item>

                </channel></rss>